<svg xmlns="http://www.w3.org/2000/svg" width="24" height="24" fill="none"><path d="M8.26 20c7.557 0 11.679-6.131 11.679-11.439v-.523c.84-.598 1.527-1.271 2.061-2.093-.763.299-1.527.523-2.366.598.84-.523 1.527-1.271 1.832-2.243-.763.449-1.679.822-2.595.972C18.107 4.523 17.038 4 15.893 4c-2.29 0-4.122 1.794-4.122 4.037 0 .299 0 .598.076.897-3.435-.15-6.412-1.794-8.473-4.187-.382.598-.534 1.271-.534 2.019 0 1.421.763 2.617 1.832 3.364-.687 0-1.298-.224-1.832-.523v.075c0 1.944 1.45 3.589 3.282 3.963-.382.075-.687.149-1.069.149-.229 0-.534 0-.763-.075.534 1.57 2.061 2.766 3.817 2.766a8.56 8.56 0 0 1-5.115 1.72c-.305 0-.687 0-.992-.075A11.37 11.37 0 0 0 8.26 20z" fill="#9ea2ab"/></svg>